<?xml version="1.0" encoding="utf-8"?>
<!-- Generator: Adobe Illustrator 22.1.0, SVG Export Plug-In . SVG Version: 6.00 Build 0)  -->
<svg version="1.1" id="Layer_1" xmlns="http://www.w3.org/2000/svg" xmlns:xlink="http://www.w3.org/1999/xlink" x="0px" y="0px"
	 viewBox="0 0 400 400" style="enable-background:new 0 0 400 400;" xml:space="preserve">
<style type="text/css">
	.st0{fill:none;stroke:#FFFFFF;stroke-width:40;stroke-miterlimit:10;}
	.st1{fill:#FFFFFF;stroke:#FFFFFF;stroke-width:6;stroke-miterlimit:10;}
	.st2{fill:#FFFFFF;stroke:#FFFFFF;stroke-miterlimit:10;}
</style>
<path class="st0" d="M339,283v62.7c0.1,15.6-11.7,28.3-26.2,28.3H87.3C72.7,374,61,361.3,61,345.9V55.1C61,39.7,72.9,27,87.3,27
	h225.4c14.6,0,26.3,12.7,26.3,28.1V80"/>
<line class="st0" x1="264" y1="102" x2="99" y2="103"/>
<line class="st0" x1="248" y1="169" x2="99" y2="170"/>
<line class="st0" x1="206" y1="236" x2="99" y2="237"/>
<g>
	<path class="st1" d="M286.4,268.2L244,237.6c-0.1-0.1-0.1-0.1,0-0.1l70-96.7c0.1-0.1,0.1-0.1,0.1,0l42.3,30.6
		c0.1,0.1,0.1,0.1,0,0.1l-69.9,96.7C286.5,268.2,286.4,268.3,286.4,268.2z"/>
	<path class="st1" d="M353.4,169.2l-36.3-26.3c-1.7-1.2-2.1-3.7-0.8-5.4l14.4-19.9c1.2-1.7,3.7-2.1,5.4-0.8l36.3,26.3
		c1.7,1.2,2.1,3.7,0.8,5.4l-14.4,19.9C357.6,170,355.2,170.4,353.4,169.2z"/>
	<rect x="306.1" y="139.4" transform="matrix(0.5864 -0.81 0.81 0.5864 14.7331 312.4059)" class="st2" width="14.4" height="4.8"/>
	<rect x="346.6" y="169.9" transform="matrix(0.5864 -0.81 0.81 0.5864 7.7087 359.6321)" class="st2" width="18.8" height="4.8"/>
	<path class="st1" d="M238.9,291.2l46.1-21.1c1.8-0.8,2-3.1,0.4-4.2L246.2,239c-1.6-1.1-3.9-0.2-4.1,1.7l-6.8,47.9
		C234.9,290.6,237,292.1,238.9,291.2z"/>
</g>
</svg>
