<?xml version="1.0" encoding="utf-8"?>
<!-- Generator: Adobe Illustrator 22.1.0, SVG Export Plug-In . SVG Version: 6.00 Build 0)  -->
<svg version="1.1" id="Layer_1" xmlns="http://www.w3.org/2000/svg" xmlns:xlink="http://www.w3.org/1999/xlink" x="0px" y="0px"
	 viewBox="0 0 400 400" style="enable-background:new 0 0 400 400;" xml:space="preserve">
<style type="text/css">
	.st0{fill:none;stroke:#000000;stroke-width:40;stroke-miterlimit:10;}
	.st1{fill:none;stroke:#FFFFFF;stroke-width:40;stroke-miterlimit:10;}
	.st2{fill:#FFFFFF;stroke:#000000;stroke-miterlimit:10;}
	.st3{fill:none;stroke:#FFFFFF;stroke-width:14;stroke-miterlimit:10;}
	.st4{fill:#FFFFFF;}
</style>
<path class="st0" d="M331,213"/>
<path class="st1" d="M331,201.3v143.4c0.1,15.6-11.7,28.3-26.2,28.3H79.3C64.7,373,53,360.3,53,344.9V54.1C53,38.7,64.9,26,79.3,26
	h225.4c14.6,0,26.3,12.7,26.3,28.1V87"/>
<polygon class="st2" points="279,107 273.1,102.8 286,85.3 291.9,89.5 "/>
<line class="st1" x1="297" y1="95" x2="95" y2="96"/>
<line class="st1" x1="256" y1="158" x2="95" y2="158"/>
<line class="st1" x1="214" y1="219" x2="95" y2="219"/>
<path class="st3" d="M262,277.3L205,238c-0.1,0-0.1-0.1,0-0.2l94.3-124c0.1-0.1,0.1-0.1,0.2,0l57,39.3c0.1,0,0.1,0.1,0,0.2
	l-94.3,124C262.2,277.3,262.1,277.3,262,277.3z"/>
<path class="st3" d="M352.4,150.2l-48.8-33.7c-2.3-1.6-2.8-4.7-1.2-6.9l19.4-25.5c1.7-2.2,4.9-2.7,7.2-1.1l48.8,33.7
	c2.3,1.6,2.8,4.7,1.2,6.9l-19.4,25.5C357.9,151.3,354.7,151.8,352.4,150.2z"/>
<polygon class="st4" points="295.1,124.3 290,120.8 301.3,105.8 306.5,109.4 "/>
<polygon class="st4" points="350.9,165.7 345.8,162.2 360.6,142.6 365.8,146.2 "/>
<path class="st3" d="M199.5,307.9l61.1-28.2c2.7-1.2,3-4.9,0.6-6.6l-52.1-35.9c-2.3-1.6-5.6-0.2-6,2.6l-9,64.1
	C193.7,306.9,196.8,309.1,199.5,307.9z"/>
<rect x="214" y="198.9" class="st4" width="11.4" height="19.2"/>
<rect x="225.4" y="198.9" class="st4" width="3.8" height="4.8"/>
<rect x="254.5" y="138" class="st4" width="11.4" height="25"/>
<rect x="265.9" y="138" class="st4" width="9.5" height="14"/>
<rect x="345.2" y="85.3" class="st4" width="5.8" height="5.8"/>
<rect x="326.8" y="182.6" class="st4" width="24.1" height="18.7"/>
<rect x="342.7" y="171.2" class="st4" width="8.2" height="11.5"/>
</svg>
