<?xml version="1.0" encoding="utf-8"?>
<!-- Generator: Adobe Illustrator 22.1.0, SVG Export Plug-In . SVG Version: 6.00 Build 0)  -->
<svg version="1.1" id="Layer_1" xmlns="http://www.w3.org/2000/svg" xmlns:xlink="http://www.w3.org/1999/xlink" x="0px" y="0px"
	 viewBox="0 0 400 400" style="enable-background:new 0 0 400 400;" xml:space="preserve">
<style type="text/css">
	.st0{fill:none;stroke:#FFFFFF;stroke-width:40;stroke-miterlimit:10;}
	.st1{fill:#FFFFFF;}
	.st2{fill:#FFFFFF;stroke:#FFFFFF;stroke-width:6;stroke-miterlimit:10;}
</style>
<path class="st0" d="M304.8,373H79.3C64.7,373,53,360.3,53,344.9V54.1C53,38.7,64.9,26,79.3,26h225.4c14.6,0,26.3,12.7,26.3,28.1
	v290.6C331.1,360.3,319.3,373,304.8,373z"/>
<polygon class="st1" points="279,107 273.1,102.8 286,85.3 291.9,89.5 "/>
<line class="st0" x1="297" y1="95" x2="95" y2="96"/>
<line class="st0" x1="263" y1="158" x2="95" y2="158"/>
<line class="st0" x1="263" y1="219" x2="95" y2="219"/>
<path class="st2" d="M262,277.3L205,238c-0.1,0-0.1-0.1,0-0.2l94.3-124c0.1-0.1,0.1-0.1,0.2,0l57,39.3c0.1,0,0.1,0.1,0,0.2
	l-94.3,124C262.2,277.3,262.1,277.3,262,277.3z"/>
<path class="st2" d="M352.4,150.2l-48.8-33.7c-2.3-1.6-2.8-4.7-1.2-6.9l19.4-25.5c1.7-2.2,4.9-2.7,7.2-1.1l48.8,33.7
	c2.3,1.6,2.8,4.7,1.2,6.9l-19.4,25.5C357.9,151.3,354.7,151.8,352.4,150.2z"/>
<polygon class="st1" points="295.1,124.3 290,120.8 301.3,105.8 306.5,109.4 "/>
<polygon class="st1" points="350.9,165.7 345.8,162.2 360.6,142.6 365.8,146.2 "/>
<path class="st2" d="M199.5,307.9l61.1-28.2c2.7-1.2,3-4.9,0.6-6.6l-52.1-35.9c-2.3-1.6-5.6-0.2-6,2.6l-9,64.1
	C193.7,306.9,196.8,309.1,199.5,307.9z"/>
</svg>
