<?xml version="1.0" encoding="utf-8"?>
<!-- Generator: Adobe Illustrator 22.1.0, SVG Export Plug-In . SVG Version: 6.00 Build 0)  -->
<svg version="1.1" id="Layer_1" xmlns="http://www.w3.org/2000/svg" xmlns:xlink="http://www.w3.org/1999/xlink" x="0px" y="0px"
	 viewBox="0 0 300 300" style="enable-background:new 0 0 300 300;" xml:space="preserve">
<style type="text/css">
	.st0{fill:none;stroke:#FFFFFF;stroke-width:11;stroke-miterlimit:10;}
	.st1{fill:#FFFFFF;}
	.st2{fill:#FFFFFF;stroke:#FFFFFF;stroke-miterlimit:10;}
</style>
<path class="st0" d="M232.7,273H67.3c-10.7,0-19.3-8.7-19.3-19.3V54.3C48,43.7,56.7,35,67.3,35h165.3c10.7,0,19.3,8.7,19.3,19.3
	v199.3C252,264.3,243.3,273,232.7,273z"/>
<g>
	<g>
		<path class="st1" d="M122,246.4c-0.3,0-0.6-0.1-0.8-0.4c-0.2-0.2-0.3-0.5-0.2-0.8l10.3-52.1c0.1-0.6,0.7-0.8,1-0.8
			c0.2,0,0.4,0.1,0.6,0.2l39.2,33c0.4,0.3,0.4,0.7,0.3,0.9c0,0.2-0.2,0.6-0.6,0.8l-49.6,19.1C122.2,246.4,122.1,246.4,122,246.4
			L122,246.4z"/>
		<path class="st1" d="M133.9,197.9l32.8,27.6l-41.4,15.9L133.9,197.9 M132.3,188.8c-2,0-4,1.4-4.4,3.6l-10.3,52.1
			c-0.6,2.9,1.7,5.4,4.4,5.4c0.5,0,1.1-0.1,1.6-0.3l49.6-19.1c3.2-1.2,3.9-5.5,1.3-7.7l-39.2-33
			C134.4,189.1,133.3,188.8,132.3,188.8L132.3,188.8z"/>
	</g>
	<g>
		<g>
			<path class="st1" d="M175.1,225.4c-0.3,0-0.7-0.1-1.1-0.4l-40.3-33.9c-0.5-0.4-0.6-0.9-0.6-1.2c0-0.3,0-0.8,0.4-1.2l90.8-107.9
				c0.3-0.4,0.8-0.6,1.3-0.6c0.3,0,0.7,0.1,1.1,0.4l40.3,33.9c0.5,0.4,0.6,0.9,0.6,1.2c0,0.3,0,0.8-0.4,1.2l-90.8,107.9
				C176.1,225.2,175.6,225.4,175.1,225.4L175.1,225.4z"/>
			<path class="st1" d="M225.8,84.4l37.6,31.6l-88.5,105.2l-37.6-31.6L225.8,84.4 M225.6,76.6c-1.5,0-3,0.6-4,1.9l-90.8,107.9
				c-1.8,2.2-1.6,5.5,0.6,7.3l40.3,33.9c1,0.8,2.2,1.2,3.3,1.2c1.5,0,3-0.6,4-1.9l90.8-107.9c1.8-2.2,1.6-5.5-0.6-7.3l-40.3-33.9
				C228,77,226.8,76.6,225.6,76.6L225.6,76.6z"/>
		</g>
		<g>
			<path class="st1" d="M268.4,113c-0.7,0-1.7-0.2-2.7-1l-36.5-30.7c-0.9-0.7-1.4-1.7-1.5-2.8c-0.1-1.1,0.2-2.2,1-3l17.2-20.4
				c0.8-0.9,2-1.5,3.2-1.5c0.7,0,1.7,0.2,2.7,1l36.5,30.7c1.8,1.5,2,4.1,0.5,5.9l-17.2,20.4C270.8,112.5,269.6,113,268.4,113z"/>
			<path class="st1" d="M249.1,57.1c0.2,0,0.4,0.1,0.4,0.2L286,87.9c0.1,0.1,0.2,0.3,0.2,0.5c0,0.2,0,0.3-0.2,0.5l-17.2,20.4
				c-0.2,0.2-0.4,0.2-0.5,0.2c-0.2,0-0.4-0.1-0.4-0.2l-36.5-30.7c-0.1-0.1-0.2-0.3-0.2-0.5c0-0.2,0-0.3,0.2-0.5l17.2-20.4
				C248.7,57.1,248.9,57.1,249.1,57.1 M249.1,50.1c-2.2,0-4.4,0.9-5.9,2.7L226,73.2c-2.7,3.2-2.3,8.1,0.9,10.8l36.5,30.7
				c1.4,1.2,3.2,1.8,4.9,1.8c2.2,0,4.4-0.9,5.9-2.7l17.2-20.4c2.7-3.2,2.3-8.1-0.9-10.8L254,51.9C252.6,50.7,250.8,50.1,249.1,50.1
				L249.1,50.1z"/>
		</g>
		<g>
			<rect x="222.2" y="75.3" transform="matrix(0.6438 -0.7652 0.7652 0.6438 21.0373 199.8588)" class="st1" width="6" height="4"/>
			<polygon class="st1" points="225.6,73.7 221.7,78.3 224.8,80.9 228.7,76.3 225.6,73.7 			"/>
		</g>
		<g>
			<rect x="267.3" y="113.3" transform="matrix(0.6438 -0.7652 0.7652 0.6438 8.0524 247.9336)" class="st1" width="6" height="4"/>
			<polygon class="st1" points="270.7,111.7 266.9,116.3 269.9,118.9 273.8,114.3 270.7,111.7 			"/>
		</g>
	</g>
</g>
<line class="st0" x1="225.2" y1="77.3" x2="68.2" y2="77.3"/>
<line class="st0" x1="200.3" y1="107.7" x2="68.2" y2="107.7"/>
<line class="st0" x1="177.3" y1="135.8" x2="68.2" y2="135.8"/>
<rect x="175.3" y="130.4" class="st2" width="4" height="6"/>
<rect x="200.3" y="102.1" class="st2" width="4" height="6"/>
<rect x="224.5" y="71.8" class="st2" width="4" height="6"/>
</svg>
